<?xml version="1.0" encoding="UTF-8"?>
<svg id="Layer_2" data-name="Layer 2" xmlns="http://www.w3.org/2000/svg" viewBox="0 0 245.8 102.29">
  <defs>
    <style>
      .cls-1 {
        fill: #7b2c82;
      }

      .cls-2 {
        fill: #2484c7;
      }

      .cls-3 {
        fill: #231f20;
      }
    </style>
  </defs>
  <g id="Layer_1-2" data-name="Layer 1">
    <g>
      <g>
        <path class="cls-1" d="m18.55,90.43c1.45.21,2.9.32,4.32.32,9.56,0,17.12-4.94,19.26-12.57,2.35-8.38-1.13-15.98-9.29-20.33-3.56-1.9-6.85-3.44-10.34-5.09-1.04-.49-2.09-.99-3.18-1.5-4.75-2.27-9.56-6.47-8.82-11.47.81-5.49,6.09-8.67,12.82-7.73,6.36.88,9.38,3.64,11.8,5.86l.11.1.05.04c.7.59,1.57.89,2.49.84.96-.05,1.85-.47,2.5-1.18.65-.71.99-1.64.94-2.62-.05-.97-.47-1.87-1.18-2.52-2.83-2.59-7.11-6.5-15.7-7.69-10.75-1.49-19.58,4.33-20.99,13.85-1.11,7.45,3.83,14.76,12.87,19.08,1.02.49,2.01.95,2.99,1.42l.25.12c3.39,1.6,6.6,3.11,9.99,4.92,6.52,3.47,6.71,8.43,5.72,11.97-1.5,5.37-7.75,8.19-15.53,7.03-5.66-.84-10.58-3.84-12.83-7.81-.48-.84-1.25-1.45-2.19-1.71-.93-.26-1.91-.14-2.75.34-.84.48-1.45,1.25-1.71,2.19-.26.93-.14,1.91.34,2.75,3.38,5.97,10.14,10.24,18.08,11.41Z"/>
        <path class="cls-1" d="m52.02,102.29c1.86,0,3.31-1.39,3.31-3.17v-12.77c2.68,2.57,7.08,4.19,11.5,4.19,10.42,0,17.98-7.56,17.98-17.98s-7.73-18.12-17.98-18.12c-4.54,0-8.44,1.4-11.92,4.29-.4-1.22-1.53-2.06-2.89-2.06-1.75,0-3.17,1.42-3.17,3.17l-.14,39.27c0,1.78,1.45,3.17,3.31,3.17Zm3.31-29.73c0-6.94,4.73-11.78,11.5-11.78s11.5,4.95,11.5,11.78-4.94,11.64-11.5,11.64-11.5-4.79-11.5-11.64Z"/>
        <path class="cls-1" d="m148.17,90.65c6.28,0,12.12-2.84,15.61-7.59.53-.68.76-1.56.62-2.42-.13-.82-.59-1.54-1.24-1.97-.68-.53-1.5-.75-2.32-.63-.8.12-1.54.56-2.07,1.24-2.46,3.15-6.53,5.1-10.61,5.1-7.02,0-12.74-5.34-12.74-11.91s5.6-11.77,12.74-11.77c4.11,0,8.44,2.4,10.31,5.7.37.66,1,1.12,1.76,1.3.88.21,1.86.03,2.66-.5,1.39-1.08,1.72-2.97.78-4.49-3.04-4.88-9.41-8.34-15.5-8.41-5.23-.05-10.11,1.9-13.77,5.52-3.46,3.43-5.37,7.92-5.37,12.65,0,10.02,8.59,18.17,19.14,18.17Z"/>
        <path class="cls-1" d="m187.35,90.65c6.27,0,12.1-2.84,15.59-7.58.53-.68.76-1.56.62-2.41-.13-.81-.59-1.54-1.23-1.96-.68-.52-1.5-.75-2.31-.62-.8.12-1.53.56-2.06,1.24-2.5,3.19-6.46,5.09-10.59,5.09-6.21,0-11.51-4.33-12.52-10.15,4.26,0,8.53.04,12.79.07,4.41.03,8.82.07,13.23.07,1.69,0,3.13-1.49,3.13-3.26v-.14c0-.36-.04-3.58-1.52-6.85-.04-.26-.26-.66-.66-1.37-.09-.15-.16-.27-.21-.37-3.16-5.18-8.22-8.03-14.23-8.03-10.89,0-19.11,7.8-19.11,18.14s8.04,18.14,19.11,18.14Zm-11.76-22.65c1.6-4.62,5.97-7.51,11.05-7.25,3.81.2,8.68,1.62,10.54,7.25h-21.59Z"/>
        <path class="cls-1" d="m124.92,85.26v-.1s0-8.24,0-8.24c0-.16-.02-.31-.05-.47l-.09-16.94c0-1.75-1.42-3.17-3.17-3.17-1.33,0-2.47.89-2.89,2.16-3.05-2.79-7.16-4.26-11.94-4.26-6.79,0-12.37,3.15-15.72,8.86-2.98,5.25-2.98,13.17,0,18.42,3.08,5.47,9.11,8.86,15.72,8.86,3.71,0,8.73-1.48,11.63-4.3,0,.02.01.03.02.05v.96c0,1.79,1.46,3.25,3.25,3.25s3.25-1.46,3.25-3.25v-1.83s0,0,0,0Zm-18.14-1.21c-6.57,0-11.52-5.01-11.52-11.66s4.95-11.94,11.52-11.94,11.52,5.13,11.52,11.94-4.84,11.66-11.52,11.66Z"/>
      </g>
      <path class="cls-3" d="m221.95,72.14c-.23,1.75-1.85,2.98-3.6,2.75-1.75-.23-2.98-1.85-2.75-3.6s1.85-2.98,3.6-2.75c1.75.23,2.98,1.85,2.75,3.6Z"/>
      <path class="cls-3" d="m245.77,45.31c-.23,1.75-1.85,2.98-3.6,2.75-1.75-.23-2.98-1.85-2.75-3.6.23-1.75,1.85-2.98,3.6-2.75,1.75.23,2.98,1.85,2.75,3.6Z"/>
      <polygon class="cls-3" points="218.15 72.21 217.43 71.51 243.31 44.76 230.23 4.74 231.18 4.43 244.45 45.02 218.15 72.21"/>
      <path class="cls-2" d="m170.45,33.47c-.57,0-1.12-.33-1.37-.88-.34-.75,0-1.64.74-1.99L230.08,3.22c.75-.34,1.64,0,1.99.75.34.75,0,1.64-.74,1.99l-60.25,27.39c-.2.09-.41.13-.62.13Z"/>
      <path class="cls-2" d="m218.9,53.6c-.2,0-.39-.04-.58-.11l-48.45-20.13c-.77-.32-1.13-1.2-.81-1.96.32-.76,1.19-1.13,1.96-.81l46.37,19.26-.02-25.23c0-.83.67-1.5,1.5-1.5h0c.83,0,1.5.67,1.5,1.5l.02,27.48c0,.5-.25.97-.67,1.25-.25.17-.54.25-.83.25Z"/>
      <path class="cls-2" d="m234.75,5.69c-.37,2.75-2.9,4.68-5.65,4.31s-4.68-2.9-4.31-5.65c.37-2.75,2.9-4.68,5.65-4.31,2.75.37,4.68,2.9,4.31,5.65Z"/>
      <path class="cls-2" d="m223.44,50.28c-.37,2.75-2.9,4.68-5.65,4.31s-4.68-2.9-4.31-5.65c.37-2.75,2.9-4.68,5.65-4.31,2.75.37,4.68,2.9,4.31,5.65Z"/>
      <path class="cls-3" d="m222.22,24.82c-.23,1.75-1.85,2.98-3.6,2.75-1.75-.23-2.98-1.85-2.75-3.6s1.85-2.98,3.6-2.75c1.75.23,2.98,1.85,2.75,3.6Z"/>
      <path class="cls-3" d="m175.01,32.51c-.23,1.75-1.85,2.98-3.6,2.75-1.75-.23-2.98-1.85-2.75-3.6s1.85-2.98,3.6-2.75c1.75.23,2.98,1.85,2.75,3.6Z"/>
      <polygon class="cls-3" points="242.69 46.1 218.8 24.48 170.61 32.75 170.44 31.77 219.11 23.42 243.36 45.36 242.69 46.1"/>
    </g>
  </g>
</svg>